<svg width="43" height="36" viewBox="0 0 43 36" fill="none" xmlns="http://www.w3.org/2000/svg">
<path d="M0.11582 4.25L9.31582 0.999998H14.3158V36H8.56582V7.15L1.51582 9.15L0.11582 4.25ZM42.6693 36H19.6193V31.5L31.8193 19.05C34.786 16.0833 36.2693 13.5167 36.2693 11.35C36.2693 9.68333 35.7693 8.36666 34.7693 7.4C33.7693 6.43333 32.4693 5.95 30.8693 5.95C27.936 5.95 25.7693 7.4 24.3693 10.3L19.5193 7.45C20.586 5.15 22.1193 3.4 24.1193 2.2C26.1193 0.966664 28.3527 0.349997 30.8193 0.349997C33.9193 0.349997 36.5527 1.31666 38.7193 3.25C40.9193 5.21667 42.0193 7.85 42.0193 11.15C42.0193 14.6833 40.036 18.4833 36.0693 22.55L28.1693 30.45H42.6693V36Z" fill="#252D35"/>
</svg>
