<svg width="101" height="37" viewBox="0 0 101 37" fill="none" xmlns="http://www.w3.org/2000/svg">
<path d="M0.103125 4.25L9.30313 0.999998H14.3031V36H8.55313V7.15L1.50313 9.15L0.103125 4.25ZM39.2066 17.8C42.64 19.7 44.3566 22.5333 44.3566 26.3C44.3566 29.4667 43.24 31.9833 41.0066 33.85C38.8066 35.7167 35.84 36.65 32.1066 36.65C28.3733 36.65 25.39 35.7333 23.1566 33.9C20.9233 32.0667 19.8066 29.5333 19.8066 26.3C19.8066 24.5 20.2566 22.8667 21.1566 21.4C22.0566 19.9 23.3233 18.7 24.9566 17.8C22.3233 16.0667 21.0066 13.6 21.0066 10.4C21.0066 7.2 22.0733 4.73333 24.2066 3C26.3733 1.23333 29.0066 0.349997 32.1066 0.349997C35.1733 0.349997 37.79 1.23333 39.9566 3C42.1233 4.76666 43.2066 7.23333 43.2066 10.4C43.2066 13.5667 41.8733 16.0333 39.2066 17.8ZM32.1066 5.8C30.5066 5.8 29.2066 6.23333 28.2066 7.1C27.24 7.93333 26.7566 9.11667 26.7566 10.65C26.7566 12.1167 27.2566 13.3 28.2566 14.2C29.2566 15.0667 30.54 15.5 32.1066 15.5C33.64 15.5 34.9066 15.0667 35.9066 14.2C36.94 13.3 37.4566 12.1167 37.4566 10.65C37.4566 9.11667 36.9566 7.93333 35.9566 7.1C34.9566 6.23333 33.6733 5.8 32.1066 5.8ZM32.1066 31.2C34.0733 31.2 35.64 30.7167 36.8066 29.75C38.0066 28.7833 38.6066 27.45 38.6066 25.75C38.6066 24.05 38.0066 22.7167 36.8066 21.75C35.64 20.7833 34.0733 20.3 32.1066 20.3C30.1066 20.3 28.5066 20.7833 27.3066 21.75C26.14 22.7167 25.5566 24.05 25.5566 25.75C25.5566 27.45 26.14 28.7833 27.3066 29.75C28.5066 30.7167 30.1066 31.2 32.1066 31.2ZM56.644 21H68.134V36H64.894V24.12H59.884V29.7C59.884 32.04 59.374 33.72 58.354 34.74C57.334 35.76 55.844 36.18 53.884 36V32.97C54.804 33.13 55.494 32.94 55.954 32.4C56.414 31.84 56.644 30.89 56.644 29.55V21ZM86.3995 29.88H74.4595C74.6995 31 75.2395 31.87 76.0795 32.49C76.9395 33.11 77.9995 33.42 79.2595 33.42C80.9595 33.42 82.2495 32.8 83.1295 31.56L85.7995 33.12C84.3395 35.3 82.1495 36.39 79.2295 36.39C76.8095 36.39 74.8395 35.65 73.3195 34.17C71.8195 32.67 71.0695 30.78 71.0695 28.5C71.0695 26.28 71.8095 24.41 73.2895 22.89C74.7495 21.37 76.6495 20.61 78.9895 20.61C81.1695 20.61 82.9695 21.38 84.3895 22.92C85.8095 24.46 86.5195 26.33 86.5195 28.53C86.5195 28.93 86.4795 29.38 86.3995 29.88ZM74.4295 27.24H83.2495C83.0295 26.06 82.5295 25.15 81.7495 24.51C80.9895 23.87 80.0595 23.55 78.9595 23.55C77.7595 23.55 76.7595 23.88 75.9595 24.54C75.1595 25.2 74.6495 26.1 74.4295 27.24ZM87.1945 21H100.245V24.12H95.3545V36H92.1145V24.12H87.1945V21Z" fill="#252D35"/>
</svg>
