<svg width="131" height="37" viewBox="0 0 131 37" fill="none" xmlns="http://www.w3.org/2000/svg">
<path d="M22.8 5.9L15.7 15.3C18.3 15.9 20.3667 17.1 21.9 18.9C23.4667 20.6667 24.25 22.8333 24.25 25.4C24.25 28.9 23.0667 31.65 20.7 33.65C18.3667 35.65 15.4667 36.65 12 36.65C9.26667 36.65 6.85 36.0333 4.75 34.8C2.65 33.5333 1.15 31.7333 0.25 29.4L5.15 26.55C6.18333 29.55 8.46667 31.05 12 31.05C14 31.05 15.5833 30.55 16.75 29.55C17.9167 28.5167 18.5 27.1333 18.5 25.4C18.5 23.6667 17.9167 22.3 16.75 21.3C15.5833 20.3 14 19.8 12 19.8H10.7L8.4 16.35L15.95 6.4H1.3V0.999998H22.8V5.9ZM64.352 31.7C61.952 35 58.5853 36.65 54.252 36.65C49.952 36.65 46.5686 35 44.102 31.7C41.702 28.4 40.502 24 40.502 18.5C40.502 13 41.702 8.6 44.102 5.3C46.5686 2 49.952 0.349997 54.252 0.349997C58.5853 0.349997 61.952 2 64.352 5.3C66.7853 8.56667 68.002 12.9667 68.002 18.5C68.002 24.0333 66.7853 28.4333 64.352 31.7ZM54.252 31.05C56.852 31.05 58.8353 29.9667 60.202 27.8C61.5686 25.6333 62.252 22.5333 62.252 18.5C62.252 14.4667 61.5686 11.3667 60.202 9.2C58.8353 7.03333 56.852 5.95 54.252 5.95C51.6853 5.95 49.702 7.03333 48.302 9.2C46.9353 11.3667 46.252 14.4667 46.252 18.5C46.252 22.5333 46.9353 25.6333 48.302 27.8C49.702 29.9667 51.6853 31.05 54.252 31.05ZM95.8461 31.7C93.4461 35 90.0794 36.65 85.7461 36.65C81.4461 36.65 78.0628 35 75.5961 31.7C73.1961 28.4 71.9961 24 71.9961 18.5C71.9961 13 73.1961 8.6 75.5961 5.3C78.0628 2 81.4461 0.349997 85.7461 0.349997C90.0794 0.349997 93.4461 2 95.8461 5.3C98.2794 8.56667 99.4961 12.9667 99.4961 18.5C99.4961 24.0333 98.2794 28.4333 95.8461 31.7ZM85.7461 31.05C88.3461 31.05 90.3294 29.9667 91.6961 27.8C93.0628 25.6333 93.7461 22.5333 93.7461 18.5C93.7461 14.4667 93.0628 11.3667 91.6961 9.2C90.3294 7.03333 88.3461 5.95 85.7461 5.95C83.1794 5.95 81.1961 7.03333 79.7961 9.2C78.4294 11.3667 77.7461 14.4667 77.7461 18.5C77.7461 22.5333 78.4294 25.6333 79.7961 27.8C81.1961 29.9667 83.1794 31.05 85.7461 31.05ZM127.34 31.7C124.94 35 121.574 36.65 117.24 36.65C112.94 36.65 109.557 35 107.09 31.7C104.69 28.4 103.49 24 103.49 18.5C103.49 13 104.69 8.6 107.09 5.3C109.557 2 112.94 0.349997 117.24 0.349997C121.574 0.349997 124.94 2 127.34 5.3C129.774 8.56667 130.99 12.9667 130.99 18.5C130.99 24.0333 129.774 28.4333 127.34 31.7ZM117.24 31.05C119.84 31.05 121.824 29.9667 123.19 27.8C124.557 25.6333 125.24 22.5333 125.24 18.5C125.24 14.4667 124.557 11.3667 123.19 9.2C121.824 7.03333 119.84 5.95 117.24 5.95C114.674 5.95 112.69 7.03333 111.29 9.2C109.924 11.3667 109.24 14.4667 109.24 18.5C109.24 22.5333 109.924 25.6333 111.29 27.8C112.69 29.9667 114.674 31.05 117.24 31.05Z" fill="#252D35"/>
</svg>
