<svg width="90" height="37" viewBox="0 0 90 37" fill="none" xmlns="http://www.w3.org/2000/svg">
<path d="M23.1539 24.35H27.1539V29.7H23.1539V36H17.3539V29.7H0.153906V24.35L12.2039 0.999998H18.4539L6.40391 24.35H17.3539V15.25H23.1539V24.35ZM53.8578 31.7C51.4578 35 48.0911 36.65 43.7578 36.65C39.4578 36.65 36.0745 35 33.6078 31.7C31.2078 28.4 30.0078 24 30.0078 18.5C30.0078 13 31.2078 8.6 33.6078 5.3C36.0745 2 39.4578 0.349997 43.7578 0.349997C48.0911 0.349997 51.4578 2 53.8578 5.3C56.2911 8.56667 57.5078 12.9667 57.5078 18.5C57.5078 24.0333 56.2911 28.4333 53.8578 31.7ZM43.7578 31.05C46.3578 31.05 48.3411 29.9667 49.7078 27.8C51.0745 25.6333 51.7578 22.5333 51.7578 18.5C51.7578 14.4667 51.0745 11.3667 49.7078 9.2C48.3411 7.03333 46.3578 5.95 43.7578 5.95C41.1911 5.95 39.2078 7.03333 37.8078 9.2C36.4411 11.3667 35.7578 14.4667 35.7578 18.5C35.7578 22.5333 36.4411 25.6333 37.8078 27.8C39.2078 29.9667 41.1911 31.05 43.7578 31.05ZM85.352 31.7C82.952 35 79.5853 36.65 75.252 36.65C70.952 36.65 67.5686 35 65.102 31.7C62.702 28.4 61.502 24 61.502 18.5C61.502 13 62.702 8.6 65.102 5.3C67.5686 2 70.952 0.349997 75.252 0.349997C79.5853 0.349997 82.952 2 85.352 5.3C87.7853 8.56667 89.002 12.9667 89.002 18.5C89.002 24.0333 87.7853 28.4333 85.352 31.7ZM75.252 31.05C77.852 31.05 79.8353 29.9667 81.202 27.8C82.5686 25.6333 83.252 22.5333 83.252 18.5C83.252 14.4667 82.5686 11.3667 81.202 9.2C79.8353 7.03333 77.852 5.95 75.252 5.95C72.6853 5.95 70.702 7.03333 69.302 9.2C67.9353 11.3667 67.252 14.4667 67.252 18.5C67.252 22.5333 67.9353 25.6333 69.302 27.8C70.702 29.9667 72.6853 31.05 75.252 31.05Z" fill="#252D35"/>
</svg>
