<svg width="50" height="37" viewBox="0 0 50 37" fill="none" xmlns="http://www.w3.org/2000/svg">
<path d="M12.377 12.75H13.027C16.6936 12.75 19.6603 13.8667 21.927 16.1C24.227 18.3 25.377 21.1667 25.377 24.7C25.377 28.2 24.227 31.0833 21.927 33.35C19.627 35.55 16.6603 36.65 13.027 36.65C9.36029 36.65 6.37695 35.55 4.07695 33.35C1.77695 31.0833 0.626953 28.2 0.626953 24.7C0.626953 22.0333 1.32695 19.6833 2.72695 17.65L13.827 0.999998H20.377L12.377 12.75ZM13.027 31.2C14.9603 31.2 16.5436 30.6167 17.777 29.45C19.0103 28.25 19.627 26.6667 19.627 24.7C19.627 22.7333 19.0103 21.1667 17.777 20C16.5436 18.8 14.9603 18.2 13.027 18.2C11.027 18.2 9.41029 18.8 8.17695 20C6.97695 21.1667 6.37695 22.7333 6.37695 24.7C6.37695 26.6667 6.97695 28.25 8.17695 29.45C9.41029 30.6167 11.027 31.2 13.027 31.2ZM49.7582 36H26.7082V31.5L38.9082 19.05C41.8749 16.0833 43.3582 13.5167 43.3582 11.35C43.3582 9.68333 42.8582 8.36666 41.8582 7.4C40.8582 6.43333 39.5582 5.95 37.9582 5.95C35.0249 5.95 32.8582 7.4 31.4582 10.3L26.6082 7.45C27.6749 5.15 29.2082 3.4 31.2082 2.2C33.2082 0.966664 35.4415 0.349997 37.9082 0.349997C41.0082 0.349997 43.6415 1.31666 45.8082 3.25C48.0082 5.21667 49.1082 7.85 49.1082 11.15C49.1082 14.6833 47.1249 18.4833 43.1582 22.55L35.2582 30.45H49.7582V36Z" fill="#252D35"/>
</svg>
