<svg width="81" height="37" viewBox="0 0 81 37" fill="none" xmlns="http://www.w3.org/2000/svg">
<path d="M19.4049 17.8C22.8382 19.7 24.5549 22.5333 24.5549 26.3C24.5549 29.4667 23.4382 31.9833 21.2049 33.85C19.0049 35.7167 16.0382 36.65 12.3049 36.65C8.57155 36.65 5.58822 35.7333 3.35488 33.9C1.12155 32.0667 0.00488282 29.5333 0.00488282 26.3C0.00488282 24.5 0.454883 22.8667 1.35488 21.4C2.25488 19.9 3.52155 18.7 5.15488 17.8C2.52155 16.0667 1.20488 13.6 1.20488 10.4C1.20488 7.2 2.27155 4.73333 4.40488 3C6.57155 1.23333 9.20488 0.349997 12.3049 0.349997C15.3716 0.349997 17.9882 1.23333 20.1549 3C22.3216 4.76666 23.4049 7.23333 23.4049 10.4C23.4049 13.5667 22.0716 16.0333 19.4049 17.8ZM12.3049 5.8C10.7049 5.8 9.40488 6.23333 8.40488 7.1C7.43822 7.93333 6.95488 9.11667 6.95488 10.65C6.95488 12.1167 7.45488 13.3 8.45488 14.2C9.45488 15.0667 10.7382 15.5 12.3049 15.5C13.8382 15.5 15.1049 15.0667 16.1049 14.2C17.1382 13.3 17.6549 12.1167 17.6549 10.65C17.6549 9.11667 17.1549 7.93333 16.1549 7.1C15.1549 6.23333 13.8716 5.8 12.3049 5.8ZM12.3049 31.2C14.2715 31.2 15.8382 30.7167 17.0049 29.75C18.2049 28.7833 18.8049 27.45 18.8049 25.75C18.8049 24.05 18.2049 22.7167 17.0049 21.75C15.8382 20.7833 14.2715 20.3 12.3049 20.3C10.3049 20.3 8.70488 20.7833 7.50488 21.75C6.33822 22.7167 5.75488 24.05 5.75488 25.75C5.75488 27.45 6.33822 28.7833 7.50488 29.75C8.70488 30.7167 10.3049 31.2 12.3049 31.2ZM36.8422 21H48.3322V36H45.0922V24.12H40.0822V29.7C40.0822 32.04 39.5722 33.72 38.5522 34.74C37.5322 35.76 36.0422 36.18 34.0822 36V32.97C35.0022 33.13 35.6922 32.94 36.1522 32.4C36.6122 31.84 36.8422 30.89 36.8422 29.55V21ZM66.5978 29.88H54.6578C54.8978 31 55.4378 31.87 56.2778 32.49C57.1378 33.11 58.1978 33.42 59.4578 33.42C61.1578 33.42 62.4478 32.8 63.3278 31.56L65.9978 33.12C64.5378 35.3 62.3478 36.39 59.4278 36.39C57.0078 36.39 55.0378 35.65 53.5178 34.17C52.0178 32.67 51.2678 30.78 51.2678 28.5C51.2678 26.28 52.0078 24.41 53.4878 22.89C54.9478 21.37 56.8478 20.61 59.1878 20.61C61.3678 20.61 63.1678 21.38 64.5878 22.92C66.0078 24.46 66.7178 26.33 66.7178 28.53C66.7178 28.93 66.6778 29.38 66.5978 29.88ZM54.6278 27.24H63.4478C63.2278 26.06 62.7278 25.15 61.9478 24.51C61.1878 23.87 60.2578 23.55 59.1578 23.55C57.9578 23.55 56.9578 23.88 56.1578 24.54C55.3578 25.2 54.8478 26.1 54.6278 27.24ZM67.3928 21H80.4428V24.12H75.5528V36H72.3128V24.12H67.3928V21Z" fill="#252D35"/>
</svg>
