<svg width="50" height="51" viewBox="0 0 50 51" fill="none" xmlns="http://www.w3.org/2000/svg">
<rect x="1" y="1.80078" width="48" height="48" fill="white" stroke="#252D35" stroke-width="2"/>
<path d="M33.4853 29.3155C32.1783 28.0085 30.6226 27.041 28.9253 26.4552C30.7432 25.2032 31.9375 23.1077 31.9375 20.7383C31.9375 16.913 28.8253 13.8008 25 13.8008C21.1747 13.8008 18.0625 16.913 18.0625 20.7383C18.0625 23.1077 19.2568 25.2032 21.0748 26.4552C19.3774 27.041 17.8218 28.0085 16.5147 29.3155C14.2482 31.582 13 34.5955 13 37.8008H14.875C14.875 32.2178 19.417 27.6758 25 27.6758C30.583 27.6758 35.125 32.2178 35.125 37.8008H37C37 34.5955 35.7518 31.582 33.4853 29.3155ZM25 25.8008C22.2085 25.8008 19.9375 23.5298 19.9375 20.7383C19.9375 17.9468 22.2085 15.6758 25 15.6758C27.7915 15.6758 30.0625 17.9468 30.0625 20.7383C30.0625 23.5298 27.7915 25.8008 25 25.8008Z" fill="#252D35"/>
</svg>
