<svg width="81" height="81" viewBox="0 0 81 81" fill="none" xmlns="http://www.w3.org/2000/svg">
<path d="M40.5 0.5C18.4241 0.5 0.5 18.4241 0.5 40.5C0.5 62.576 18.4241 80.5 40.5 80.5C62.576 80.5 80.5 62.576 80.5 40.5C80.5 18.4241 62.576 0.5 40.5 0.5ZM40.5 78.4747C19.538 78.4747 2.52532 61.462 2.52532 40.5C2.52532 19.538 19.538 2.52532 40.5 2.52532C61.462 2.52532 78.4747 19.538 78.4747 40.5C78.4747 61.462 61.462 78.4747 40.5 78.4747Z" fill="#01305E"/>
<path d="M54.7786 26.2207L34.1204 34.1194L26.2217 54.7777L46.8799 46.8789L54.7786 26.2207Z" fill="#B8884B"/>
<path d="M40.5003 7.28516C22.1712 7.28516 7.28516 22.1712 7.28516 40.5003C7.28516 58.8295 22.1712 73.7155 40.5003 73.7155C58.8295 73.7155 73.7155 58.8295 73.7155 40.5003C73.7155 22.1712 58.8295 7.28516 40.5003 7.28516ZM63.1839 61.7662L59.8421 58.4244L58.4244 59.8421L61.7662 63.1839C56.3991 68.2472 49.3105 71.3864 41.4117 71.589V64.0953H39.3864V71.4877C31.589 71.1839 24.5003 68.0446 19.2345 63.0826L22.5763 59.7409L21.1586 58.3231L17.8168 61.7662C12.7535 56.3991 9.61427 49.3105 9.41174 41.513H16.8041V39.4877H9.41174C9.61427 31.6902 12.7535 24.6016 17.8168 19.2345L21.1586 22.5763L22.5763 21.1586L19.2345 17.8168C24.6016 12.7535 31.6902 9.61427 39.4877 9.41174V16.8041H41.513V9.41174C49.4117 9.61427 56.5003 12.7535 61.8674 17.8168L58.5257 21.1586L59.9434 22.5763L63.2852 19.2345C68.3484 24.6016 71.4877 31.6902 71.6902 39.4877H64.1965V41.513H71.6902C71.3864 49.3105 68.2472 56.5003 63.1839 61.7662Z" fill="#01305E"/>
</svg>
