<svg width="81" height="78" viewBox="0 0 81 78" fill="none" xmlns="http://www.w3.org/2000/svg">
<path d="M77.9915 8.53084C77.8911 10.2372 77.59 11.9436 76.787 13.4493C76.1847 14.6538 74.8798 15.7579 73.7757 16.561C71.6678 18.0666 68.8572 17.8658 66.4482 17.1632C66.8497 18.167 66.4482 19.3715 65.6452 20.1745C64.8422 20.9775 63.738 21.2786 62.6339 21.2786C62.3328 21.2786 61.9313 21.2786 61.6301 21.1783V20.576H60.2249C60.1245 20.4756 60.0241 20.4756 59.9237 20.3753C60.0241 20.4756 60.0241 20.4756 60.1245 20.576H49.585C49.2838 19.9738 49.1835 19.3715 49.1835 18.7692C49.0831 16.6613 50.5887 14.4531 52.5962 14.0515C53.8008 13.7504 54.8045 13.9512 56.009 14.2523C54.1019 12.6463 54.0015 9.63498 55.6075 7.62746C57.0128 5.92106 59.6226 5.3188 61.6301 6.32256C61.5297 6.62369 61.4294 7.0252 61.329 7.32633L62.3328 6.72407C62.132 6.52332 61.9313 6.42294 61.6301 6.32256C62.132 4.81692 62.7343 3.51202 64.6414 2.00638C65.3441 1.30374 66.2474 1.00261 67.2512 0.80186C68.5561 0.500731 69.861 0.299978 71.1659 0.500731C73.073 0.80186 74.7794 1.70525 75.9839 3.21089C77.1885 4.71654 78.0919 6.62369 77.9915 8.53084Z" fill="#B8884B"/>
<path d="M60.2256 20.5762H61.5305V21.0781C61.129 20.9777 60.6271 20.8773 60.2256 20.5762Z" fill="#B8884B"/>
<path d="M62.5003 5.99982L63.0003 7L61.1992 7.5036C61.2996 7.20247 61.4 6.80097 61.5003 6.49984C61.5003 6 62.2996 5.89945 62.5003 5.99982Z" fill="#B8884B"/>
<path d="M30.3126 58.0156H3.71289V67.451H30.3126V58.0156Z" fill="#B8884B"/>
<path d="M78.0923 75.7831V47.6777H64.0396L62.2328 20.0742H49.0835L47.1763 47.6777H43.4624L43.362 35.8333L31.1161 46.674L31.0158 35.7329L18.8702 46.674L18.7698 35.8333L5.41977 47.6777H2.20772V75.7831H0.200195V77.7906H80.2002V75.7831H78.0923ZM50.8903 22.0817H60.3257L62.0321 47.6777H49.1839L50.8903 22.0817ZM41.3545 40.2499L41.4549 47.6777H33.0233L41.3545 40.2499ZM29.0082 40.2499L29.1086 47.6777H20.677L29.0082 40.2499ZM16.7623 40.2499L16.8627 47.6777H8.43106L16.7623 40.2499ZM76.0848 75.7831H63.8388V57.5146H61.8313V75.7831H53.6004V57.5146H51.5929V75.7831H43.362V57.5146H41.3545V75.7831H4.21525V49.6853H76.1851V75.7831H76.0848Z" fill="#01305E"/>
</svg>
