<svg width="80" height="80" viewBox="0 0 80 80" fill="none" xmlns="http://www.w3.org/2000/svg">
<path d="M74.8147 67.3729C75.4254 66.4569 75.8325 65.2355 75.8325 64.0142V60.9607C75.8325 57.8055 73.3898 55.1592 70.2345 54.8539V46.5078H9.16584V54.9556C6.01063 55.261 3.56788 57.8055 3.56788 61.0625V64.116C3.56788 65.3373 3.975 66.4569 4.58569 67.4747C1.63404 69.205 -0.299805 72.3602 -0.299805 76.0243V79.6885H20.6671V76.0243C20.6671 72.3602 18.7333 69.205 15.7816 67.4747C16.3923 66.5587 16.7994 65.3373 16.7994 64.116V61.0625C16.7994 57.9073 14.3567 55.261 11.2015 54.9556V48.6452H38.6824V54.9556C35.5272 55.261 33.0844 57.8055 33.0844 61.0625V64.116C33.0844 65.3373 33.4915 66.4569 34.1022 67.4747C31.1506 69.205 29.2167 72.3602 29.2167 76.0243V79.6885H50.1837V76.0243C50.1837 72.3602 48.2498 69.205 45.2982 67.4747C45.9088 66.5587 46.316 65.3373 46.316 64.116V61.0625C46.316 57.9073 43.8732 55.261 40.718 54.9556V48.6452H68.1989V54.9556C65.0437 55.261 62.601 57.8055 62.601 61.0625V64.116C62.601 65.3373 63.0081 66.4569 63.6188 67.4747C60.6671 69.205 58.7333 72.3602 58.7333 76.0243V79.6885H79.7002V76.0243C79.7002 72.3602 77.7663 69.1032 74.8147 67.3729ZM18.6315 75.9226V77.5511H1.73582V75.9226C1.73582 72.8691 3.4661 70.2228 6.01063 68.8997C7.02844 69.7139 8.35159 70.121 9.67475 70.121H10.6926C12.1175 70.121 13.3389 69.7139 14.3567 68.8997C16.9012 70.2228 18.6315 72.8691 18.6315 75.9226ZM14.7638 61.0625V64.116C14.7638 65.032 14.4585 65.8462 13.9496 66.5587C13.3389 67.3729 12.4228 67.8819 11.405 68.0854C11.2015 68.1872 10.9979 68.1872 10.6926 68.1872H9.67475C9.36941 68.1872 9.16584 68.1872 8.96228 68.0854C7.94447 67.8819 7.02844 67.3729 6.41775 66.5587C5.90885 65.8462 5.6035 65.032 5.6035 64.116V61.0625C5.6035 58.8233 7.43556 56.9913 9.67475 56.9913H10.6926C12.9317 56.9913 14.7638 58.8233 14.7638 61.0625ZM48.148 75.9226V77.5511H31.2524V75.9226C31.2524 72.8691 32.9826 70.2228 35.5272 68.8997C36.545 69.7139 37.8681 70.121 39.1913 70.121H40.2091C41.634 70.121 42.8554 69.7139 43.8732 68.8997C46.4177 70.2228 48.148 72.8691 48.148 75.9226ZM44.2803 61.0625V64.116C44.2803 65.032 43.975 65.8462 43.4661 66.5587C42.8554 67.3729 41.9394 67.8819 40.9216 68.0854C40.718 68.1872 40.5144 68.1872 40.2091 68.1872H39.1913C38.8859 68.1872 38.6824 68.1872 38.4788 68.0854C37.461 67.8819 36.545 67.3729 35.9343 66.5587C35.4254 65.8462 35.12 65.032 35.12 64.116V61.0625C35.12 58.8233 36.9521 56.9913 39.1913 56.9913H40.2091C42.4483 56.9913 44.2803 58.8233 44.2803 61.0625ZM64.6366 61.0625C64.6366 58.8233 66.4686 56.9913 68.7078 56.9913H69.7256C71.9648 56.9913 73.7969 58.8233 73.7969 61.0625V64.116C73.7969 65.032 73.4915 65.8462 72.9826 66.5587C72.3719 67.3729 71.4559 67.8819 70.4381 68.0854C70.2345 68.1872 70.031 68.1872 69.7256 68.1872H68.7078C68.4025 68.1872 68.1989 68.1872 67.9954 68.0854C66.9776 67.8819 66.0615 67.3729 65.4508 66.5587C64.9419 65.8462 64.6366 65.032 64.6366 64.116V61.0625ZM77.6646 77.5511H60.7689V75.9226C60.7689 72.8691 62.4992 70.2228 65.0437 68.8997C66.0615 69.7139 67.3847 70.121 68.7078 70.121H69.7256C71.1506 70.121 72.3719 69.7139 73.3898 68.8997C75.9343 70.2228 77.6646 72.8691 77.6646 75.9226V77.5511Z" fill="#01305E"/>
<path d="M40.7182 40.8066H38.6826V47.626H40.7182V40.8066Z" fill="#01305E"/>
<path d="M38.4789 21.5707C38.6825 21.5707 38.9878 21.6725 39.1914 21.6725H40.2092C40.5145 21.6725 40.7181 21.6725 40.9216 21.5707C41.9395 21.3671 42.8555 20.8582 43.4662 20.044C43.9751 19.3315 44.2804 18.5173 44.2804 17.6012V14.5478C44.2804 12.3086 42.4484 10.4766 40.2092 10.4766H39.1914C36.9522 10.4766 35.1201 12.3086 35.1201 14.5478V17.6012C35.1201 18.5173 35.4255 19.3315 35.9344 20.044C36.5451 20.7565 37.4611 21.3671 38.4789 21.5707Z" fill="#B8884B"/>
<path d="M43.8728 22.3848C42.855 23.199 41.5318 23.6061 40.2087 23.6061H39.1909C37.7659 23.6061 36.5446 23.199 35.5268 22.3848C32.9822 23.7079 31.252 26.3542 31.252 29.4077V31.0362H48.1476V29.4077C48.1476 26.3542 46.4173 23.7079 43.8728 22.3848Z" fill="#B8884B"/>
<path d="M39.7 0.400391C28.5041 0.400391 19.3438 9.56069 19.3438 20.7566C19.3438 31.9525 28.5041 41.1129 39.7 41.1129C50.8959 41.1129 60.0562 31.9525 60.0562 20.7566C60.0562 9.45891 50.8959 0.400391 39.7 0.400391ZM50.1834 29.408V33.0721H29.2165V29.408C29.2165 25.7439 31.1504 22.5887 34.102 20.8584C33.4913 19.9424 33.0842 18.721 33.0842 17.4996V14.4462C33.0842 11.291 35.527 8.64466 38.6822 8.33932H40.7178C43.873 8.64466 46.3158 11.1892 46.3158 14.4462V17.4996C46.3158 18.721 45.9086 19.8406 45.2979 20.8584C48.2496 22.5887 50.1834 25.7439 50.1834 29.408Z" fill="#B8884B"/>
</svg>
