<svg width="81" height="74" viewBox="0 0 81 74" fill="none" xmlns="http://www.w3.org/2000/svg">
<path d="M40.8017 9.9668C38.0536 9.9668 35.8145 12.206 35.8145 14.9541C35.8145 17.7022 38.0536 19.9414 40.8017 19.9414C43.5498 19.9414 45.789 17.7022 45.789 14.9541C45.789 12.206 43.5498 9.9668 40.8017 9.9668Z" fill="#B8884B"/>
<path d="M27.7744 2.94336V71.3403H54.2375V2.94336H27.7744ZM42.1256 64.9281L40.7006 66.353L34.8991 60.5515L36.324 59.1266L40.5988 63.5031L44.8736 59.1266L46.2986 60.5515L42.1256 64.9281ZM46.4004 39.1774V41.2131H35.2044V39.1774H46.4004ZM35.2044 34.6991V32.6635H46.4004V34.6991H35.2044ZM39.9882 45.7932V47.8288H35.1027V45.7932H39.9882ZM40.8024 21.9764C36.9347 21.9764 33.7795 18.8212 33.7795 14.9535C33.7795 11.0859 36.9347 7.93064 40.8024 7.93064C44.6701 7.93064 47.8253 11.0859 47.8253 14.9535C47.8253 18.8212 44.6701 21.9764 40.8024 21.9764Z" fill="#B8884B"/>
<path d="M28.5882 73.7824H0.700195V0.5H28.5882V73.7824ZM2.73582 71.7468H26.5526V2.53562H2.73582V71.7468Z" fill="#01305E"/>
<path d="M80.7005 73.7824H52.8125V0.5H80.7005V73.7824ZM54.8481 71.7468H78.6649V2.53562H54.8481V71.7468Z" fill="#01305E"/>
<path d="M20.7515 60.5519L16.3749 64.9285L14.95 66.3534L9.14844 60.5519L10.6752 59.127L14.95 63.5035L19.2248 59.127L20.7515 60.5519Z" fill="#01305E"/>
<path d="M72.4563 60.5519L68.1815 64.9285L66.7566 66.3534L60.9551 60.5519L62.38 59.127L66.7566 63.5035L71.0314 59.127L72.4563 60.5519Z" fill="#01305E"/>
<path d="M20.5475 32.6621H9.35156V34.6977H20.5475V32.6621Z" fill="#01305E"/>
<path d="M14.9497 21.9755C11.082 21.9755 7.92676 18.8203 7.92676 14.9526C7.92676 11.0849 11.082 7.92969 14.9497 7.92969C18.8173 7.92969 21.9726 11.0849 21.9726 14.9526C21.9726 18.8203 18.8173 21.9755 14.9497 21.9755ZM14.9497 9.96531C12.2016 9.96531 9.96238 12.2045 9.96238 14.9526C9.96238 17.7007 12.2016 19.9399 14.9497 19.9399C17.6977 19.9399 19.9369 17.7007 19.9369 14.9526C19.9369 12.2045 17.6977 9.96531 14.9497 9.96531Z" fill="#01305E"/>
<path d="M66.8579 21.9755C62.9902 21.9755 59.835 18.8203 59.835 14.9526C59.835 11.0849 62.9902 7.92969 66.8579 7.92969C70.7255 7.92969 73.8808 11.0849 73.8808 14.9526C73.8808 18.8203 70.7255 21.9755 66.8579 21.9755ZM66.8579 9.96531C64.1098 9.96531 61.8706 12.2045 61.8706 14.9526C61.8706 17.7007 64.1098 19.9399 66.8579 19.9399C69.606 19.9399 71.8451 17.7007 71.8451 14.9526C71.8451 12.2045 69.606 9.96531 66.8579 9.96531Z" fill="#01305E"/>
<path d="M20.5475 39.1777H9.35156V41.2134H20.5475V39.1777Z" fill="#01305E"/>
<path d="M14.2371 45.793H9.35156V47.8286H14.2371V45.793Z" fill="#01305E"/>
<path d="M72.3541 32.6621H61.1582V34.6977H72.3541V32.6621Z" fill="#01305E"/>
<path d="M72.3541 39.1777H61.1582V41.2134H72.3541V39.1777Z" fill="#01305E"/>
<path d="M66.0437 45.793H61.1582V47.8286H66.0437V45.793Z" fill="#01305E"/>
</svg>
