<svg width="81" height="68" viewBox="0 0 81 68" fill="none" xmlns="http://www.w3.org/2000/svg">
<path d="M63.4064 2.4295L60.9637 12.5058L58.9281 11.9969L60.5566 5.58471L43.8644 16.4753L25.0349 4.26156L6.8161 16.3735L5.59473 14.6432L25.0349 1.81881L43.8644 14.0326L59.437 3.85443L52.923 2.73484L53.2283 0.699219L63.4064 2.4295Z" fill="#01305E"/>
<path d="M67.9865 20.0376V41.6152L70.0221 55.5592L65.4419 57.7984L61.2689 55.8645H59.7422V20.0376H67.9865ZM29.2078 20.0376V55.7628H20.9636V20.0376H29.2078ZM48.1391 32.4549V55.661H39.8949V32.4549H48.1391ZM10.3783 32.9638V55.7628H2.23582V32.9638H10.3783ZM70.0221 18.002H57.7066V55.7628H50.2765V30.4193H37.961V55.661H31.2435V18.002H18.9279V55.7628H12.4139V30.9282H0.200195V57.7984H70.0221V18.002Z" fill="#01305E"/>
<path d="M65.3405 48.8417C67.4779 48.8417 69.3099 50.572 69.3099 52.8112C69.3099 54.9486 67.5797 56.7806 65.3405 56.7806C63.2031 56.7806 61.371 55.0504 61.371 52.8112C61.371 50.6738 63.1013 48.8417 65.3405 48.8417ZM65.3405 40.6992C58.6229 40.6992 53.2285 46.0936 53.2285 52.8112C53.2285 59.5287 58.6229 64.9231 65.3405 64.9231C72.058 64.9231 77.4524 59.5287 77.4524 52.8112C77.4524 46.0936 71.9562 40.6992 65.3405 40.6992Z" fill="#B8884B"/>
<path d="M68.9025 37.6465H61.676L60.6582 44.6694H69.9203L68.9025 37.6465Z" fill="#B8884B"/>
<path d="M68.9021 37.6465H61.6756L61.1667 41.4124C59.8436 41.9213 58.6222 42.6338 57.5026 43.5498L53.9403 42.1249L50.3779 48.3335L53.4314 50.6745C53.3296 51.2852 53.2278 51.9976 53.2278 52.7101C53.2278 53.5243 53.3296 54.2368 53.4314 54.9493L50.4797 57.392L54.1438 63.6007L57.7062 62.1757C58.724 62.99 59.9454 63.7025 61.1667 64.2114L61.6756 67.9773H68.9021L69.411 64.2114C70.7342 63.7025 71.9555 62.99 73.0751 62.074L76.6375 63.4989L80.1998 57.2902L77.1464 54.9493C77.2482 54.3386 77.3499 53.6261 77.3499 52.9137C77.3499 52.0994 77.2482 51.3869 77.1464 50.6745L80.098 48.2317L76.4339 42.0231L72.8716 43.448C71.8538 42.6338 70.6324 41.9213 69.411 41.4124L68.9021 37.6465ZM65.3398 56.7813C63.2024 56.7813 61.3703 54.9493 61.3703 52.8119C61.3703 50.6745 63.2024 48.8424 65.3398 48.8424C67.4772 48.8424 69.3092 50.6745 69.3092 52.8119C69.3092 54.9493 67.4772 56.7813 65.3398 56.7813Z" fill="#B8884B"/>
</svg>
