<svg width="64" height="80" viewBox="0 0 64 80" fill="none" xmlns="http://www.w3.org/2000/svg">
<path d="M54.0186 32.6615C54.0186 42.6006 47.4608 51.0027 38.4439 53.8718C36.2921 54.589 34.0379 54.8964 31.7837 54.8964C30.759 54.8964 29.8369 54.7939 28.8122 54.6915C23.2791 53.9742 18.2583 51.1052 14.877 47.0066C15.6967 40.7562 20.9224 36.0428 27.1728 36.0428C29.5295 36.0428 31.6812 36.6576 33.5256 37.8872C36.2921 34.096 40.1858 31.3295 44.8992 30.2023C47.9732 29.4851 51.0471 29.5875 53.9161 30.3048C54.0186 31.1245 54.0186 31.8418 54.0186 32.6615Z" fill="#B8884B"/>
<path d="M39.9809 62.4785C53.9161 58.7897 63.5478 46.1865 63.5478 31.739C63.5478 23.0294 59.8591 14.5248 53.5062 8.58187C47.0509 2.53643 38.5463 -0.537521 29.7344 0.077269C13.6473 1.10192 0.634285 14.5248 0.0194946 30.6119C-0.492831 45.4693 9.13888 58.5848 23.484 62.376C23.9963 62.4785 24.5086 62.8883 24.816 63.4007C25.4308 64.6302 26.4555 66.6796 27.4801 68.7289C22.3569 69.4461 18.0533 71.2905 18.0533 74.262C18.0533 78.0532 25.1234 80 31.7837 80C38.4439 80 45.514 77.9507 45.514 74.262C45.514 71.2905 41.108 69.4461 35.9847 68.7289C37.0094 66.6796 37.9316 64.6302 38.5463 63.5031C38.8537 62.9908 39.3661 62.6834 39.9809 62.4785ZM43.4647 74.262C43.4647 75.7989 38.9562 77.9507 31.7837 77.9507C24.6111 77.9507 20.1026 75.6965 20.1026 74.262C20.1026 73.0324 23.2791 71.2905 28.4023 70.6757C29.5294 72.9299 30.3491 74.7743 30.3491 75.0817H33.2182C33.2182 74.6718 34.0379 72.8275 35.0625 70.6757C40.2882 71.2905 43.4647 73.0324 43.4647 74.262ZM36.702 62.6834C35.8823 64.2204 34.8576 66.4746 33.833 68.6264C33.5256 69.3436 33.2182 69.9584 32.9108 70.6757C32.3984 71.5979 32.091 72.5201 31.7837 73.2373C31.4763 72.5201 31.0664 71.7003 30.6565 70.6757C30.3491 70.0609 30.0417 69.3436 29.6319 68.6264C28.6072 66.4746 27.3777 64.2204 26.5579 62.5809C26.0456 61.5563 25.1234 60.7366 23.9963 60.4292C10.5734 56.8429 1.55647 44.5471 2.0688 30.7143C2.58112 15.652 14.7745 3.04876 29.8368 2.12657C30.4516 2.12657 31.1689 2.0241 31.7837 2.0241C39.3661 2.0241 46.5386 4.89313 52.0717 10.1188C58.1172 15.7544 61.4985 23.5418 61.4985 31.739C61.4985 45.1619 52.3791 57.0478 39.4685 60.4292C38.2389 60.839 37.2143 61.5563 36.702 62.6834Z" fill="#01305E"/>
<path d="M31.7841 54.7929C19.0785 54.7929 8.72949 44.4439 8.72949 31.7382C8.72949 19.0326 19.0785 8.68359 31.7841 8.68359C44.4898 8.68359 54.8388 19.0326 54.8388 31.7382C54.8388 44.4439 44.4898 54.7929 31.7841 54.7929ZM31.7841 10.7329C20.2056 10.7329 10.7788 20.1597 10.7788 31.7382C10.7788 43.3168 20.2056 52.7436 31.7841 52.7436C43.3627 52.7436 52.7895 43.3168 52.7895 31.7382C52.7895 20.1597 43.3627 10.7329 31.7841 10.7329Z" fill="#01305E"/>
<path d="M25.1239 28.8708C22.0499 28.8708 19.4883 26.3091 19.4883 23.2352C19.4883 20.1612 22.0499 17.5996 25.1239 17.5996C28.1978 17.5996 30.7594 20.1612 30.7594 23.2352C30.7594 26.3091 28.1978 28.8708 25.1239 28.8708ZM25.1239 19.6489C23.177 19.6489 21.5376 21.2884 21.5376 23.2352C21.5376 25.182 23.177 26.8215 25.1239 26.8215C27.0707 26.8215 28.7101 25.182 28.7101 23.2352C28.7101 21.2884 27.0707 19.6489 25.1239 19.6489Z" fill="#01305E"/>
</svg>
